{"title":"The Rachel Maddow Show 2015 07 23 webrip.mp4","uid":12154331,"size":265485554,"categoryP":"video","categoryS":"tv_shows","magnet":"?xt=urn:btih:375c343cfffe65a63fe06a7cc844544183ce60b1&amp;dn=The+Rachel+Maddow+Show+2015+07+23+webrip.mp4&amp;tr=udp%3A%2F%2Ftracker.openbittorrent.com%3A80&amp;tr=udp%3A%2F%2Fopen.demonii.com%3A1337&amp;tr=udp%3A%2F%2Ftracker.coppersurfer.tk%3A6969&amp;tr=udp%3A%2F%2Fexodus.desync.com%3A6969","seeders":2,"leechers":0,"uploader":null,"files":1,"time":1437733050,"description":"The.Rachel.Maddow.Show.2015.07.23.360p.mp4\n\n\nVideo\nID                                       : 1\nFormat                                   : AVC\nFormat/Info                              : Advanced Video Codec\nFormat profile                           : &lt;a class=&quot;__cf_email__&quot; href=&quot;/cdn-cgi/l/email-protection&quot; data-cfemail=&quot;f2b09381979e9b9c97b2bec1dcc2&quot;&gt;[email&amp;#160;protected]&lt;/a&gt;&lt;script data-cfhash='f9e31' type=&quot;text/javascript&quot;&gt;\n/* &lt;![CDATA[ */!function(){try{var t=&quot;currentScript&quot;in document?document.currentScript:function(){for(var t=document.getElementsByTagName(&quot;script&quot;),e=t.length;e--;)if(t[e].getAttribute(&quot;data-cfhash&quot;))return t[e]}();if(t&amp;&amp;t.previousSibling){var e,r,n,i,c=t.previousSibling,a=c.getAttribute(&quot;data-cfemail&quot;);if(a){for(e=&quot;&quot;,r=parseInt(a.substr(0,2),16),n=2;a.length-n;n+=2)i=parseInt(a.substr(n,2),16)^r,e+=String.fromCharCode(i);e=document.createTextNode(e),c.parentNode.replaceChild(e,c)}t.parentNode.removeChild(t);}}catch(u){}}()/* ]]&gt; */&lt;/script&gt;\nFormat settings, CABAC                   : No\nFormat settings, ReFrames                : 1 frame\nCodec ID                                 : avc1\nCodec ID/Info                            : Advanced Video Coding\nDuration                                 : 44mn 10s\nBit rate                                 : 700 Kbps\nWidth                                    : 640 pixels\nHeight                                   : 360 pixels\nDisplay aspect ratio                     : 16:9\nFrame rate mode                          : Constant\nFrame rate                               : 29.970 fps\nColor space                              : YUV\nChroma subsampling                       : 4:2:0\nBit depth                                : 8 bits\nScan type                                : Progressive\nBits/(Pixel*Frame)                       : 0.101\nStream size                              : 227 MiB (90%)\nWriting library                          : x264 core 120\n\nAudio\nID                                       : 2\nFormat                                   : AAC\nFormat/Info                              : Advanced Audio Codec\nFormat profile                           : LC\nCodec ID                                 : 40\nDuration                                 : 44mn 10s\nBit rate mode                            : Variable\nBit rate                                 : 75.6 Kbps\nMaximum bit rate                         : 96.0 Kbps\nChannel(s)                               : 2 channels\nChannel positions                        : Front: L R\nSampling rate                            : 44.1 KHz\nCompression mode                         : Lossy\nStream size                              : 23.9 MiB (9%)","torrent":{"xt":"urn:btih:375c343cfffe65a63fe06a7cc844544183ce60b1","amp;dn":"The+Rachel+Maddow+Show+2015+07+23+webrip.mp4","amp;tr":["udp%3A%2F%2Ftracker.openbittorrent.com%3A80","udp%3A%2F%2Fopen.demonii.com%3A1337","udp%3A%2F%2Ftracker.coppersurfer.tk%3A6969","udp%3A%2F%2Fexodus.desync.com%3A6969"],"infoHash":"375c343cfffe65a63fe06a7cc844544183ce60b1","infoHashBuffer":{"type":"Buffer","data":[55,92,52,60,255,254,101,166,63,224,106,124,200,68,84,65,131,206,96,177]},"announce":[],"urlList":[]}}